<svg xmlns="http://www.w3.org/2000/svg" xmlns:xlink="http://www.w3.org/1999/xlink" viewBox="0 0 50.28 65.28" fill="#fff" fill-rule="evenodd" stroke="#000" stroke-linecap="round" stroke-linejoin="round"><use xlink:href="#A" x=".64" y=".64"/><symbol id="A" overflow="visible"><g stroke="none" fill-rule="nonzero"><path d="M47.153 3.64c.032.753-.157 1.498-.544 2.14a3.78 3.78 0 0 1-1.632 1.475 3.75 3.75 0 0 1-2.17.311c-.74-.116-1.427-.45-1.975-.958s-.94-1.172-1.115-1.902a3.84 3.84 0 0 1 .122-2.207c.255-.705.713-1.32 1.316-1.765a3.75 3.75 0 0 1 2.067-.731 3.76 3.76 0 0 1 2.711.998 3.82 3.82 0 0 1 1.219 2.637z" fill="#767677"/><path d="M25.148 48.394c-10.05 0-18.824-3.682-23.382-9.132a24.97 24.97 0 0 0 9.051 12.127 24.62 24.62 0 0 0 14.338 4.608 24.56 24.56 0 0 0 14.337-4.608c4.19-3.008 7.352-7.237 9.048-12.127-4.567 5.45-13.343 9.133-23.392 9.133zm-.002-35.452c10.05 0 18.826 3.683 23.382 9.133a24.93 24.93 0 0 0-9.05-12.127 24.61 24.61 0 0 0-14.335-4.6c-5.135 0-10.148 1.6-14.337 4.6a24.97 24.97 0 0 0-9.051 12.127c4.566-5.438 13.343-9.13 23.392-9.13z" fill="#f37726"/><path d="M11.353 58.992c.042.948-.197 1.887-.686 2.7s-1.203 1.46-2.06 1.86a4.71 4.71 0 0 1-2.736.392c-.943-.146-1.797-.566-2.5-1.21a4.82 4.82 0 0 1-1.404-2.399 4.84 4.84 0 0 1 .156-2.782c.324-.89.903-1.664 1.664-2.227a4.7 4.7 0 0 1 2.608-.917 4.74 4.74 0 0 1 3.413 1.261c.93.863 1.48 2.057 1.534 3.323z" fill="#989798"/><path d="M2.912 11.708c-.55.026-1.098-.118-1.57-.407s-.85-.714-1.082-1.217-.31-1.07-.227-1.62S.362 7.4.736 7a2.81 2.81 0 0 1 1.395-.832c.535-.133 1.1-.1 1.62.092s.97.534 1.293.986a2.83 2.83 0 0 1-.2 3.564 2.78 2.78 0 0 1-1.933.909z" fill="#6f7070"/></g></symbol></svg>