<svg xmlns="http://www.w3.org/2000/svg" xmlns:xlink="http://www.w3.org/1999/xlink" viewBox="0 0 65.697 56.697" fill="#fff" fill-rule="evenodd" stroke="#000" stroke-linecap="round" stroke-linejoin="round"><use xlink:href="#A" x=".848" y=".848"/><symbol id="A" overflow="visible"><g stroke="none" fill-rule="nonzero"><path d="M61.5 42.297c-3.415 1.78-21.106 9.055-24.873 11.018s-5.86 1.944-8.835.523S5.98 44.81 2.588 43.19C.89 42.378.002 41.696.002 41.05v-6.47s24.512-5.336 28.47-6.756 5.327-1.47 8.697-.238S60.673 32.454 64 33.674v6.38c0 .64-.767 1.357-2.506 2.246z" fill="#a41e11"/><path d="M61.5 35.826c-3.415 1.782-21.106 9.055-24.873 11.018s-5.86 1.944-8.835.523S5.98 38.34 2.587 36.718s-3.46-2.737-.13-4.04l26.013-10.07c3.957-1.418 5.327-1.47 8.697-.238S58.12 30.6 61.43 31.838s3.456 2.206.04 4.004z" fill="#d82c20"/><path d="M61.5 31.747c-3.415 1.78-21.106 9.055-24.873 11.018s-5.86 1.944-8.835.523S5.98 34.26 2.588 32.64C.89 31.828.002 31.146.002 30.5v-6.47s24.512-5.336 28.47-6.756 5.327-1.47 8.697-.238S60.673 21.904 64 23.124v6.38c0 .64-.767 1.357-2.506 2.246z" fill="#a41e11"/><path d="M61.5 25.277c-3.415 1.782-21.106 9.055-24.873 11.018s-5.86 1.944-8.835.523S5.98 27.792 2.587 26.17s-3.46-2.737-.13-4.04L28.47 12.06c3.957-1.42 5.327-1.47 8.697-.237s20.954 8.234 24.283 9.45 3.456 2.206.04 4.004z" fill="#d82c20"/><path d="M61.5 20.806c-3.415 1.78-21.106 9.055-24.873 11.02s-5.86 1.944-8.835.523S5.98 23.322 2.588 21.7C.89 20.89.002 20.207.002 19.563V13.1s24.512-5.336 28.47-6.756 5.327-1.47 8.697-.238S60.673 10.962 64 12.182v6.38c0 .64-.767 1.357-2.506 2.246z" fill="#a41e11"/><path d="M61.5 14.335c-3.415 1.782-21.106 9.055-24.873 11.018s-5.86 1.944-8.835.523S5.98 16.85 2.587 15.228s-3.46-2.737-.13-4.04L28.47 1.117c3.957-1.42 5.327-1.47 8.697-.238S58.12 9.113 61.45 10.33s3.456 2.206.04 4.004z" fill="#d82c20"/><path d="M33.597 11.668l-2.005-3.334-6.403-.577 4.778-1.724-1.434-2.647 4.472 1.748 4.218-1.38-1.14 2.735 4.3 1.612-5.545.577zm-10.682 6.637l14.83-2.277-4.48 6.57zM11 12.84c0-1.702 3.535-3.073 7.927-3.073s7.927 1.37 7.927 3.073-3.535 3.073-7.927 3.073S11 14.543 11 12.84z"/><path d="M55.715 12.39l-8.772 3.465-.007-6.934z" fill="#7a0c00"/><path d="M46.945 15.856l-.95.373-8.765-3.465 9.7-3.84z" fill="#ad2115"/></g></symbol></svg>