<svg xmlns="http://www.w3.org/2000/svg" xmlns:xlink="http://www.w3.org/1999/xlink" viewBox="0 0 48 48" fill="#fff" fill-rule="evenodd" stroke="#000" stroke-linecap="round" stroke-linejoin="round"><style><![CDATA[.B{fill-rule:nonzero}.C{stroke-width:.124}.D{fill:#fefefe}]]></style><use xlink:href="#A" x=".5" y=".5"/><symbol id="A" overflow="visible"><g class="B C"><path d="M23.332 1.944L2.096 23.2l21.148 21.176L44.48 23.12z" fill="#019833"/><path d="M23.243 2.033V.172L.15 23.297h1.947z" fill="#66fe98"/><path d="M23.2 2.033V.172l23.094 23.125h-1.947z" fill="#45fe02"/><path d="M23.243 44.51v1.86L.15 23.244h1.947z" fill="#017d17"/></g><path d="M4.434 2.52h14.89l.907.91v2.788l-.72.877h-1.627V20.94L31.9 7.095h-2.315l-.813-.877V3.272l.75-.69h15.08l.75.752V6.09l-34.1 35.022h-3.88l-1.123-.65V6.968H4.37l-.688-.69V3.334z" fill="none" stroke-width="2.474"/><path d="M23.2 44.508v1.86l23.094-23.125h-1.947z" fill="#005d04" class="B C"/><path d="M23.18 0L0 23.212l23.084 23.115 23.18-23.212z" fill="none" stroke-width=".742"/><g class="C"><path d="M19.482 3.938l.84-.443-.863-.863H4.44l-.763.764v2.89l.846.847.404-.847-.53-.532V3.718l.398-.354h14.334z" class="B D"/><use xlink:href="#C" fill="none"/><g class="B"><path d="M7.25 6.217V40.05l.438.5-.344.655-.97-.97V7.095z" class="D"/><path d="M4.822 6.217l-.25.814h1.814l1-.814z" fill="gray"/><path d="M29.747 7.132l.398-.82-.575-.532V3.964l.664-.665h13.85l.53.71.752-.53-.774-.775h-14.89l-.74.742v2.913l.77.726M17.7 21.068l-1.446 3.514L32.58 8.2V6.24z" class="D"/><path d="M19.45 3.836l.72-.47v2.85l-.83.83h-1.61v14.05l-1.47 3.477V6.217h2.7l.5-.407z" fill="gray"/><use xlink:href="#C" fill="#ccc"/><path d="M44.612 3.85l.756-.437v2.74l-34.274 35.07h-3.64l.348-.692H10.6L44.567 5.4zM32.5 6.264l-.767.8H29.74l.47-.8h2.3z" fill="gray"/></g></g><g fill="#ccc"><path d="M24.338 26.036c-.026.005-.05.017-.07.035l-.658.566c-.02.018-.035.04-.043.066l-.658 1.845c-.02.055-.006.117.035.16l.503.504c.03.028.068.043.11.043h2.032c.04.001.08-.015.11-.043l.53-.535c.018-.018.032-.04.04-.066l.565-1.942c.016-.053.001-.1-.04-.15l-.437-.438c-.03-.028-.068-.043-.11-.042H24.37c-.01-.001-.02-.001-.03 0zm-3.724 5.202c-.057.012-.102.056-.116.113l-.252 1c-.01.045-.001.093.027.13s.072.058.12.06h1.196l-2.965 8.478c-.015.046-.008.097.02.137s.074.063.123.064h4.316c.066.001.126-.04.147-.105l.283-.91c.014-.047.005-.097-.024-.136s-.074-.06-.124-.06H22.4l2.933-8.567c.015-.046.008-.097-.02-.137s-.074-.062-.123-.064h-4.537a.16.16 0 0 0-.031 0zm13.735.03c-.033.007-.063.025-.085.05l-.898 1.016h-1.428l-.952-.99c-.028-.03-.067-.046-.11-.046h-3.4c-.064 0-.12.04-.143.1l-.314.938c-.015.046-.008.097.02.137s.074.063.123.064h.914l-2.84 8.385c-.015.046-.008.097.02.137s.074.063.123.064h3.63c.064 0 .12-.04.143-.1l.28-.818c.016-.046.008-.097-.02-.137s-.074-.062-.123-.064h-.635l1.812-5.7h3.28l-2.067 6.632c-.014.047-.006.097.024.136s.074.06.124.062h3.503c.06-.001.115-.037.14-.093l.314-.752c.02-.047.013-.1-.015-.14s-.073-.066-.124-.068h-.635l1.843-5.807h3.12l-2.098 6.663c-.014.047-.005.097.024.136s.074.06.123.06h3.848c.063.001.12-.038.143-.097l.314-.818c.017-.047.01-.098-.018-.14s-.075-.065-.124-.065h-.763l2.32-7.54c.016-.047.007-.1-.023-.14l-.72-.97c-.03-.038-.076-.06-.124-.058h-2.752c-.042-.001-.083.016-.112.046l-.866.954H37.6l-.898-.985a.15.15 0 0 0-.112-.047h-2.218c-.01-.001-.02-.001-.03 0z" stroke-width=".992" class="B"/><path d="M24.368 26.187l-.66.566-.66 1.845.503.504h2.032l.53-.535.565-1.942-.437-.438zm-3.724 5.2l-.252 1h1.41l-3.035 8.68h4.316l.282-.91h-1.19l3.004-8.768zm13.735.03l-.94 1.066h-1.564l-1-1.035h-3.4l-.314.938h1.127l-2.91 8.586h3.63l.28-.818h-.844l1.91-6.012h3.6l-2.13 6.83h3.503l.314-.752h-.844l1.94-6.11h3.44l-2.16 6.86h3.848l.314-.818h-.972l2.38-7.738-.72-.97h-2.752l-.9 1h-1.66l-.94-1.03z" class="B C"/></g></symbol><defs ><path id="C" d="M30.102 3.272l-.53.53v1.95l.465.465H32.5v1.884L16.255 24.58V6.242h2.698l.554-.554V3.714l-.51-.395h-14.2l-.465.465V5.8l.472.473h2.47v33.77l.465.465h2.807L44.568 5.354v-1.55l-.53-.53z"/></defs></svg>